<svg width="480" height="266" viewBox="0 0 480 266" fill="none" xmlns="http://www.w3.org/2000/svg">
<path d="M93.2727 37.2727C92.4545 30.3636 89.1364 25 83.3182 21.1818C77.5 17.3636 70.3636 15.4545 61.9091 15.4545C55.7273 15.4545 50.3182 16.4545 45.6818 18.4545C41.0909 20.4545 37.5 23.2045 34.9091 26.7045C32.3636 30.2045 31.0909 34.1818 31.0909 38.6364C31.0909 42.3636 31.9773 45.5682 33.75 48.25C35.5682 50.8864 37.8864 53.0909 40.7045 54.8636C43.5227 56.5909 46.4773 58.0227 49.5682 59.1591C52.6591 60.25 55.5 61.1364 58.0909 61.8182L72.2727 65.6364C75.9091 66.5909 79.9545 67.9091 84.4091 69.5909C88.9091 71.2727 93.2045 73.5682 97.2955 76.4773C101.432 79.3409 104.841 83.0227 107.523 87.5227C110.205 92.0227 111.545 97.5455 111.545 104.091C111.545 111.636 109.568 118.455 105.614 124.545C101.705 130.636 95.9773 135.477 88.4318 139.068C80.9318 142.659 71.8182 144.455 61.0909 144.455C51.0909 144.455 42.4318 142.841 35.1136 139.614C27.8409 136.386 22.1136 131.886 17.9318 126.114C13.7955 120.341 11.4545 113.636 10.9091 106H28.3636C28.8182 111.273 30.5909 115.636 33.6818 119.091C36.8182 122.5 40.7727 125.045 45.5455 126.727C50.3636 128.364 55.5455 129.182 61.0909 129.182C67.5455 129.182 73.3409 128.136 78.4773 126.045C83.6136 123.909 87.6818 120.955 90.6818 117.182C93.6818 113.364 95.1818 108.909 95.1818 103.818C95.1818 99.1818 93.8864 95.4091 91.2955 92.5C88.7045 89.5909 85.2955 87.2273 81.0682 85.4091C76.8409 83.5909 72.2727 82 67.3636 80.6364L50.1818 75.7273C39.2727 72.5909 30.6364 68.1136 24.2727 62.2955C17.9091 56.4773 14.7273 48.8636 14.7273 39.4545C14.7273 31.6364 16.8409 24.8182 21.0682 19C25.3409 13.1364 31.0682 8.5909 38.25 5.36363C45.4773 2.0909 53.5455 0.45454 62.4545 0.45454C71.4545 0.45454 79.4545 2.06818 86.4545 5.29545C93.4545 8.47726 99 12.8409 103.091 18.3864C107.227 23.9318 109.409 30.2273 109.636 37.2727H93.2727ZM145.074 142H127.347L178.619 2.36363H196.074L247.347 142H229.619L187.892 24.4545H186.801L145.074 142ZM151.619 87.4545H223.074V102.455H151.619V87.4545ZM269.097 142V2.36363H352.824V17.3636H286.006V64.5455H346.551V79.5455H286.006V142H269.097ZM381.784 142V2.36363H466.057V17.3636H398.693V64.5455H461.693V79.5455H398.693V127H467.148V142H381.784Z" fill="black"/>
<path d="M8.45455 243V173.182H50.3182V180.682H16.9091V204.273H47.1818V211.773H16.9091V243H8.45455ZM63.7074 243V190.636H71.7528V243H63.7074ZM67.7983 181.909C66.2301 181.909 64.8778 181.375 63.7415 180.307C62.6278 179.239 62.071 177.955 62.071 176.455C62.071 174.955 62.6278 173.67 63.7415 172.602C64.8778 171.534 66.2301 171 67.7983 171C69.3665 171 70.7074 171.534 71.821 172.602C72.9574 173.67 73.5256 174.955 73.5256 176.455C73.5256 177.955 72.9574 179.239 71.821 180.307C70.7074 181.375 69.3665 181.909 67.7983 181.909ZM86.4886 243V190.636H94.2614V198.545H94.8068C95.7614 195.955 97.4886 193.852 99.9886 192.239C102.489 190.625 105.307 189.818 108.443 189.818C109.034 189.818 109.773 189.83 110.659 189.852C111.545 189.875 112.216 189.909 112.67 189.955V198.136C112.398 198.068 111.773 197.966 110.795 197.83C109.841 197.67 108.83 197.591 107.761 197.591C105.216 197.591 102.943 198.125 100.943 199.193C98.9659 200.239 97.3977 201.693 96.2386 203.557C95.1023 205.398 94.5341 207.5 94.5341 209.864V243H86.4886ZM142.568 244.091C137.523 244.091 133.17 242.977 129.511 240.75C125.875 238.5 123.068 235.364 121.091 231.341C119.136 227.295 118.159 222.591 118.159 217.227C118.159 211.864 119.136 207.136 121.091 203.045C123.068 198.932 125.818 195.727 129.341 193.432C132.886 191.114 137.023 189.955 141.75 189.955C144.477 189.955 147.17 190.409 149.83 191.318C152.489 192.227 154.909 193.705 157.091 195.75C159.273 197.773 161.011 200.455 162.307 203.795C163.602 207.136 164.25 211.25 164.25 216.136V219.545H123.886V212.591H156.068C156.068 209.636 155.477 207 154.295 204.682C153.136 202.364 151.477 200.534 149.318 199.193C147.182 197.852 144.659 197.182 141.75 197.182C138.545 197.182 135.773 197.977 133.432 199.568C131.114 201.136 129.33 203.182 128.08 205.705C126.83 208.227 126.205 210.932 126.205 213.818V218.455C126.205 222.409 126.886 225.761 128.25 228.511C129.636 231.239 131.557 233.318 134.011 234.75C136.466 236.159 139.318 236.864 142.568 236.864C144.682 236.864 146.591 236.568 148.295 235.977C150.023 235.364 151.511 234.455 152.761 233.25C154.011 232.023 154.977 230.5 155.659 228.682L163.432 230.864C162.614 233.5 161.239 235.818 159.307 237.818C157.375 239.795 154.989 241.341 152.148 242.455C149.307 243.545 146.114 244.091 142.568 244.091ZM176.489 262.636V190.636H184.261V198.955H185.216C185.807 198.045 186.625 196.886 187.67 195.477C188.739 194.045 190.261 192.773 192.239 191.659C194.239 190.523 196.943 189.955 200.352 189.955C204.761 189.955 208.648 191.057 212.011 193.261C215.375 195.466 218 198.591 219.886 202.636C221.773 206.682 222.716 211.455 222.716 216.955C222.716 222.5 221.773 227.307 219.886 231.375C218 235.42 215.386 238.557 212.045 240.784C208.705 242.989 204.852 244.091 200.489 244.091C197.125 244.091 194.432 243.534 192.409 242.42C190.386 241.284 188.83 240 187.739 238.568C186.648 237.114 185.807 235.909 185.216 234.955H184.534V262.636H176.489ZM184.398 216.818C184.398 220.773 184.977 224.261 186.136 227.284C187.295 230.284 188.989 232.636 191.216 234.341C193.443 236.023 196.17 236.864 199.398 236.864C202.761 236.864 205.568 235.977 207.818 234.205C210.091 232.409 211.795 230 212.932 226.977C214.091 223.932 214.67 220.545 214.67 216.818C214.67 213.136 214.102 209.818 212.966 206.864C211.852 203.886 210.159 201.534 207.886 199.807C205.636 198.057 202.807 197.182 199.398 197.182C196.125 197.182 193.375 198.011 191.148 199.67C188.92 201.307 187.239 203.602 186.102 206.557C184.966 209.489 184.398 212.909 184.398 216.818ZM243.034 173.182V243H234.989V173.182H243.034ZM273.179 244.227C269.861 244.227 266.849 243.602 264.145 242.352C261.44 241.08 259.293 239.25 257.702 236.864C256.111 234.455 255.315 231.545 255.315 228.136C255.315 225.136 255.906 222.705 257.088 220.841C258.27 218.955 259.849 217.477 261.827 216.409C263.804 215.341 265.986 214.545 268.372 214.023C270.781 213.477 273.202 213.045 275.634 212.727C278.815 212.318 281.395 212.011 283.372 211.807C285.372 211.58 286.827 211.205 287.736 210.682C288.668 210.159 289.134 209.25 289.134 207.955V207.682C289.134 204.318 288.213 201.705 286.372 199.841C284.554 197.977 281.793 197.045 278.088 197.045C274.247 197.045 271.236 197.886 269.054 199.568C266.872 201.25 265.338 203.045 264.452 204.955L256.815 202.227C258.179 199.045 259.997 196.568 262.27 194.795C264.565 193 267.065 191.75 269.77 191.045C272.497 190.318 275.179 189.955 277.815 189.955C279.497 189.955 281.429 190.159 283.611 190.568C285.815 190.955 287.94 191.761 289.986 192.989C292.054 194.216 293.77 196.068 295.134 198.545C296.497 201.023 297.179 204.341 297.179 208.5V243H289.134V235.909H288.724C288.179 237.045 287.27 238.261 285.997 239.557C284.724 240.852 283.031 241.955 280.918 242.864C278.804 243.773 276.224 244.227 273.179 244.227ZM274.406 237C277.588 237 280.27 236.375 282.452 235.125C284.656 233.875 286.315 232.261 287.429 230.284C288.565 228.307 289.134 226.227 289.134 224.045V216.682C288.793 217.091 288.043 217.466 286.884 217.807C285.747 218.125 284.429 218.409 282.929 218.659C281.452 218.886 280.009 219.091 278.599 219.273C277.213 219.432 276.088 219.568 275.224 219.682C273.134 219.955 271.179 220.398 269.361 221.011C267.565 221.602 266.111 222.5 264.997 223.705C263.906 224.886 263.361 226.5 263.361 228.545C263.361 231.341 264.395 233.455 266.463 234.886C268.554 236.295 271.202 237 274.406 237ZM333.136 244.091C328.227 244.091 324 242.932 320.455 240.614C316.909 238.295 314.182 235.102 312.273 231.034C310.364 226.966 309.409 222.318 309.409 217.091C309.409 211.773 310.386 207.08 312.341 203.011C314.318 198.92 317.068 195.727 320.591 193.432C324.136 191.114 328.273 189.955 333 189.955C336.682 189.955 340 190.636 342.955 192C345.909 193.364 348.33 195.273 350.216 197.727C352.102 200.182 353.273 203.045 353.727 206.318H345.682C345.068 203.932 343.705 201.818 341.591 199.977C339.5 198.114 336.682 197.182 333.136 197.182C330 197.182 327.25 198 324.886 199.636C322.545 201.25 320.716 203.534 319.398 206.489C318.102 209.42 317.455 212.864 317.455 216.818C317.455 220.864 318.091 224.386 319.364 227.386C320.659 230.386 322.477 232.716 324.818 234.375C327.182 236.034 329.955 236.864 333.136 236.864C335.227 236.864 337.125 236.5 338.83 235.773C340.534 235.045 341.977 234 343.159 232.636C344.341 231.273 345.182 229.636 345.682 227.727H353.727C353.273 230.818 352.148 233.602 350.352 236.08C348.58 238.534 346.227 240.489 343.295 241.943C340.386 243.375 337 244.091 333.136 244.091ZM387.443 244.091C382.398 244.091 378.045 242.977 374.386 240.75C370.75 238.5 367.943 235.364 365.966 231.341C364.011 227.295 363.034 222.591 363.034 217.227C363.034 211.864 364.011 207.136 365.966 203.045C367.943 198.932 370.693 195.727 374.216 193.432C377.761 191.114 381.898 189.955 386.625 189.955C389.352 189.955 392.045 190.409 394.705 191.318C397.364 192.227 399.784 193.705 401.966 195.75C404.148 197.773 405.886 200.455 407.182 203.795C408.477 207.136 409.125 211.25 409.125 216.136V219.545H368.761V212.591H400.943C400.943 209.636 400.352 207 399.17 204.682C398.011 202.364 396.352 200.534 394.193 199.193C392.057 197.852 389.534 197.182 386.625 197.182C383.42 197.182 380.648 197.977 378.307 199.568C375.989 201.136 374.205 203.182 372.955 205.705C371.705 208.227 371.08 210.932 371.08 213.818V218.455C371.08 222.409 371.761 225.761 373.125 228.511C374.511 231.239 376.432 233.318 378.886 234.75C381.341 236.159 384.193 236.864 387.443 236.864C389.557 236.864 391.466 236.568 393.17 235.977C394.898 235.364 396.386 234.455 397.636 233.25C398.886 232.023 399.852 230.5 400.534 228.682L408.307 230.864C407.489 233.5 406.114 235.818 404.182 237.818C402.25 239.795 399.864 241.341 397.023 242.455C394.182 243.545 390.989 244.091 387.443 244.091Z" fill="black"/>
</svg>
